<?xml version="1.0" standalone="no"?>
<!DOCTYPE svg PUBLIC "-//W3C//DTD SVG 20010904//EN"
 "http://www.w3.org/TR/2001/REC-SVG-20010904/DTD/svg10.dtd">
<svg version="1.0" xmlns="http://www.w3.org/2000/svg"
 width="2261.000000pt" height="2241.000000pt" viewBox="0 0 2261.000000 2241.000000"
 preserveAspectRatio="xMidYMid meet">

<g transform="translate(0.000000,2241.000000) scale(0.100000,-0.100000)"
fill="#34bf49" stroke="none">
<path d="M21257 22377 c-31 -12 -108 -59 -170 -104 -61 -46 -143 -106 -182
-133 -38 -28 -77 -56 -85 -63 -9 -7 -38 -28 -65 -47 -28 -19 -55 -39 -61 -45
-7 -5 -40 -30 -75 -55 -61 -44 -499 -369 -529 -393 -8 -7 -31 -23 -50 -37 -19
-13 -37 -27 -40 -30 -3 -3 -21 -17 -40 -30 -19 -13 -37 -27 -40 -30 -3 -3 -21
-17 -40 -30 -19 -13 -37 -27 -40 -30 -3 -3 -21 -17 -40 -30 -19 -13 -37 -27
-40 -30 -3 -3 -32 -25 -65 -50 -33 -25 -65 -49 -71 -55 -6 -5 -26 -21 -44 -35
-18 -14 -70 -54 -116 -90 -45 -36 -149 -117 -231 -181 -263 -207 -458 -360
-478 -377 -11 -10 -37 -29 -57 -44 -20 -15 -42 -33 -50 -40 -7 -7 -29 -25 -48
-39 -19 -15 -45 -35 -56 -45 -12 -11 -36 -30 -54 -44 -18 -14 -41 -32 -50 -40
-37 -31 -58 -48 -185 -150 -71 -57 -132 -106 -135 -110 -3 -3 -30 -25 -60 -50
-30 -25 -57 -47 -60 -50 -3 -3 -30 -25 -60 -50 -30 -25 -60 -49 -66 -55 -6 -5
-35 -30 -64 -55 -29 -25 -58 -50 -64 -55 -6 -6 -27 -23 -46 -39 -55 -45 -119
-102 -1023 -910 -753 -673 -918 -826 -1451 -1346 -537 -524 -1377 -1362 -1593
-1590 -44 -47 -98 -103 -119 -126 -22 -22 -77 -83 -124 -134 -47 -51 -98 -107
-115 -124 -16 -17 -68 -74 -115 -126 -47 -52 -94 -104 -105 -115 -19 -20 -153
-168 -185 -205 -8 -9 -43 -48 -77 -86 -189 -212 -457 -517 -538 -614 -44 -52
-82 -97 -85 -100 -4 -3 -322 -395 -707 -871 -812 -1003 -1259 -1594 -1930
-2550 -517 -738 -461 -652 -1048 -1584 -651 -1032 -768 -1225 -1227 -2025 -97
-168 -210 -366 -253 -440 -131 -229 -277 -474 -291 -489 -10 -11 -15 -8 -29
20 -33 64 -258 444 -358 604 -138 221 -277 427 -527 785 -47 67 -123 177 -170
244 -47 68 -104 147 -126 177 -23 30 -63 86 -89 124 -94 139 -141 203 -185
255 -16 19 -30 38 -30 42 0 4 -6 13 -13 20 -7 7 -42 51 -77 98 -35 47 -69 90
-75 96 -5 6 -26 30 -45 54 -36 45 -91 111 -100 120 -3 3 -30 34 -60 70 -54 64
-92 107 -200 224 -266 288 -560 535 -770 648 -253 135 -523 167 -895 107 -71
-12 -147 -23 -168 -26 -20 -3 -40 -9 -43 -14 -3 -5 -15 -9 -26 -9 -12 0 -49
-9 -82 -20 -34 -11 -77 -25 -96 -31 -75 -23 -235 -89 -313 -129 -22 -11 -45
-20 -52 -20 -7 0 -15 -3 -17 -7 -1 -5 -34 -24 -73 -43 -38 -19 -72 -37 -75
-40 -5 -5 -75 -43 -117 -64 -13 -6 -23 -14 -23 -18 0 -5 -5 -8 -11 -8 -6 0
-30 -13 -54 -30 -24 -16 -46 -30 -50 -30 -7 0 -97 -60 -105 -70 -3 -3 -27 -22
-55 -40 -27 -19 -51 -37 -53 -42 -2 -4 -8 -8 -14 -8 -5 0 -15 -6 -22 -13 -7
-6 -28 -23 -46 -37 -18 -14 -39 -31 -46 -38 -7 -6 -15 -12 -19 -12 -4 0 -12
-6 -19 -13 -7 -6 -28 -23 -46 -37 -18 -14 -42 -33 -54 -43 -11 -11 -38 -33
-60 -50 -45 -37 -65 -56 -210 -191 -138 -128 -281 -271 -326 -327 -19 -23 -54
-60 -77 -82 -24 -22 -43 -46 -43 -53 0 -7 -10 -20 -22 -28 -56 -40 -331 -387
-476 -602 l-60 -90 103 -254 c57 -140 121 -298 143 -350 l40 -95 48 -14 c425
-125 785 -268 1159 -460 745 -382 1315 -854 1910 -1581 66 -80 142 -172 170
-205 28 -33 63 -82 79 -110 16 -27 77 -124 136 -215 209 -323 368 -603 452
-795 15 -33 54 -119 87 -192 81 -177 232 -529 454 -1058 253 -603 344 -809
453 -1028 52 -103 94 -194 94 -202 0 -8 4 -15 10 -15 5 0 13 -12 16 -27 4 -15
33 -79 64 -143 32 -63 142 -287 246 -498 143 -291 191 -380 199 -370 8 12 535
431 680 542 22 17 42 33 45 36 3 3 52 44 110 90 97 78 236 192 735 607 595
494 722 600 745 619 14 12 70 59 125 104 55 45 111 92 125 104 14 11 50 41 80
66 30 24 118 96 195 160 77 64 171 141 208 171 l68 56 48 139 c78 225 180 464
358 838 675 1421 1748 3293 3221 5620 246 390 874 1342 1127 1711 34 50 110
162 170 250 563 829 1145 1647 1985 2786 97 132 295 394 415 549 45 58 128
166 185 240 377 488 848 1083 1155 1460 141 172 595 722 669 810 44 52 127
151 185 220 118 141 273 322 281 330 3 3 50 57 105 120 93 108 304 349 315
360 3 3 43 48 90 100 469 524 892 983 1313 1425 460 482 1387 1393 1800 1770
103 94 132 143 171 291 23 89 26 120 26 260 l0 159 -53 94 c-49 87 -58 98
-113 128 -49 27 -67 32 -109 29 -27 -2 -68 2 -90 9 -47 16 -125 30 -255 45
-52 6 -120 15 -150 20 -135 22 -488 70 -508 69 -9 0 -43 -10 -75 -22z"/>
</g>
</svg>
